<?xml version="1.0" standalone="no"?>
<!DOCTYPE svg PUBLIC "-//W3C//DTD SVG 20010904//EN"
 "http://www.w3.org/TR/2001/REC-SVG-20010904/DTD/svg10.dtd">
<svg version="1.0" xmlns="http://www.w3.org/2000/svg"
 width="128.000000pt" height="128.000000pt" viewBox="0 0 128.000000 128.000000"
 preserveAspectRatio="xMidYMid meet">
<metadata>
Created by potrace 1.11, written by Peter Selinger 2001-2013
</metadata>
<g transform="translate(0.000000,128.000000) scale(0.100000,-0.100000)"
fill="#000000" stroke="none">
<path d="M1012 1181 c-88 -30 -146 -86 -173 -166 -7 -22 -14 -41 -15 -43 -1
-2 -19 5 -41 16 -226 116 -523 13 -637 -220 -152 -312 63 -672 409 -683 187
-7 362 98 444 268 69 141 61 307 -21 456 -47 84 -43 153 11 215 24 28 86 56
123 56 39 0 51 7 67 37 14 28 14 34 -5 58 -19 26 -94 29 -162 6z m-391 -277
c78 -40 65 -164 -19 -188 -69 -19 -132 27 -132 98 1 82 78 128 151 90z m286
-283 c27 -31 30 -86 7 -119 -56 -80 -172 -53 -190 44 -3 19 20 93 30 94 0 0
19 6 40 14 47 16 79 7 113 -33z m-533 24 c32 -21 50 -67 42 -108 -17 -91 -142
-110 -189 -29 -54 92 57 196 147 137z m242 -52 c19 -26 17 -50 -6 -73 -26 -26
-54 -25 -80 2 -23 25 -24 29 -9 62 18 38 69 43 95 9z m-1 -197 c50 -21 72 -74
53 -129 -35 -100 -191 -81 -200 26 -3 39 22 84 55 101 40 19 49 20 92 2z"/>
</g>
</svg>
